<svg xmlns="http://www.w3.org/2000/svg" viewBox="0 0 900 600" role="img" aria-label="Флаг Мексики">
  <path fill="#006847" d="M0 0h300v600H0z"/>
  <path fill="#fff" d="M300 0h300v600H300z"/>
  <path fill="#ce1126" d="M600 0h300v600H600z"/>
  <g transform="translate(450 300)">
    <circle r="70" fill="none" stroke="#9b7b35" stroke-width="12" stroke-dasharray="16 9"/>
    <path fill="#76512d" d="M-35-28c20-42 67-42 86-12-31-5-49 7-57 32 24-7 45-4 61 8-21 18-49 21-75 10l-28 29 7-45z"/>
    <path fill="#2f7547" d="M-75 44c31-7 56 3 75 29-38 4-66-6-85-31zm150 0c-31-7-56 3-75 29 38 4 66-6 85-31z"/>
    <path fill="none" stroke="#b28b3e" stroke-width="8" d="M-66 48c28 38 104 38 132 0"/>
  </g>
</svg>
