<svg xmlns="http://www.w3.org/2000/svg" viewBox="0 0 900 600" role="img" aria-label="Флаг Португалии">
  <path fill="#046a38" d="M0 0h360v600H0z"/>
  <path fill="#da291c" d="M360 0h540v600H360z"/>
  <g transform="translate(360 300)">
    <circle r="102" fill="none" stroke="#ffcc33" stroke-width="18"/>
    <path fill="none" stroke="#ffcc33" stroke-width="11" d="M-102 0h204M0-102v204M-82-60c45 30 119 30 164 0M-82 60c45-30 119-30 164 0"/>
    <path fill="#fff" stroke="#d4a62a" stroke-width="8" d="M-55-64h110v112c0 52-55 75-55 75S-55 100-55 48z"/>
    <path fill="#d52b1e" d="M-39-48h78V2h-78zM-39 18h78v30c0 32-39 52-39 52s-39-20-39-52z"/>
    <g fill="#2b5daa">
      <circle cx="-24" cy="-33" r="7"/><circle cx="0" cy="-33" r="7"/><circle cx="24" cy="-33" r="7"/>
      <circle cx="-24" cy="-10" r="7"/><circle cx="0" cy="-10" r="7"/><circle cx="24" cy="-10" r="7"/>
      <circle cx="0" cy="39" r="10"/>
    </g>
  </g>
</svg>
