<svg xmlns="http://www.w3.org/2000/svg" viewBox="0 0 400 600" role="img" aria-labelledby="title">
  <title id="title">Архивная карточка футболиста</title>
  <defs>
    <linearGradient id="paper" x1="0" y1="0" x2="1" y2="1">
      <stop offset="0" stop-color="#d8d1bd"/>
      <stop offset="1" stop-color="#8a9687"/>
    </linearGradient>
    <pattern id="grain" width="18" height="18" patternUnits="userSpaceOnUse">
      <circle cx="3" cy="4" r="1" fill="#183b35" opacity=".1"/>
      <circle cx="14" cy="12" r=".7" fill="#f7f0dd" opacity=".25"/>
    </pattern>
  </defs>
  <rect width="400" height="600" rx="18" fill="url(#paper)"/>
  <rect width="400" height="600" rx="18" fill="url(#grain)"/>
  <path d="M200 124c-57 0-103 46-103 103s46 103 103 103 103-46 103-103-46-103-103-103Z" fill="#173b35" opacity=".88"/>
  <path d="M73 564c5-117 52-190 127-190s122 73 127 190H73Z" fill="#173b35" opacity=".88"/>
  <circle cx="200" cy="227" r="79" fill="#d9d0b8" opacity=".2"/>
  <path d="M48 51h304M48 548h304" stroke="#f4edd9" stroke-width="3" opacity=".8"/>
  <text x="200" y="86" fill="#173b35" font-family="Georgia,serif" font-size="21" text-anchor="middle" letter-spacing="4">ТОМСКИЙ ФУТБОЛ</text>
  <text x="200" y="585" fill="#f4edd9" font-family="Arial,sans-serif" font-size="15" text-anchor="middle" letter-spacing="3">АРХИВ · XXI ВЕК</text>
</svg>
